<?xml version="1.0" standalone="no"?><!DOCTYPE svg PUBLIC "-//W3C//DTD SVG 1.1//EN" "http://www.w3.org/Graphics/SVG/1.1/DTD/svg11.dtd"><svg
  class="icon" viewBox="0 0 1024 1024" version="1.1" xmlns="http://www.w3.org/2000/svg" width="200" height="200"><defs><style type="text/css">@font-face { font-family: feedback-iconfont; src: url("//at.alicdn.com/t/font_1031158_u69w8yhxdu.woff2?t=1630033759944") format("woff2"), url("//at.alicdn.com/t/font_1031158_u69w8yhxdu.woff?t=1630033759944") format("woff"), url("//at.alicdn.com/t/font_1031158_u69w8yhxdu.ttf?t=1630033759944") format("truetype"); }
</style>
  </defs>
    <path d="M512 512m-384 0a384 384 0 1 0 768 0 384 384 0 1 0-768 0Z" fill="#F5F5F5"/>
    <path d="M512 682.672a85.648 85.648 0 0 1-84.976-75.904 80.048 80.048 0 0 1-0.352-9.44 83.072 83.072 0 0 1 0.32-9.376 85.536 85.536 0 0 1 169.984-0.064 80.016 80.016 0 0 1 0.352 9.44 83.088 83.088 0 0 1-0.32 9.376A85.696 85.696 0 0 1 512 682.672z" fill="#F2EDA7"/>
    <path d="M682.672 469.328m-42.672 0a42.672 42.672 0 1 0 85.344 0 42.672 42.672 0 1 0-85.344 0Z" fill="#807A6E"/>
    <path d="M341.328 469.328m-42.672 0a42.672 42.672 0 1 0 85.344 0 42.672 42.672 0 1 0-85.344 0Z" fill="#807A6E"/>
    <path d="M128.848 537.168A467.296 467.296 0 0 1 128 512a384 384 0 0 1 768 0c0 8.528-0.416 17.04-0.848 25.12a212.384 212.384 0 0 0-212.48-195.792 208.912 208.912 0 0 0-123.728 40.112 81.024 81.024 0 0 1-93.888 0 208.912 208.912 0 0 0-123.728-40.096 212.368 212.368 0 0 0-212.48 195.824z m766.464 0" fill="#807A6E"/>
    <path d="M704 448m-21.328 0a21.328 21.328 0 1 0 42.656 0 21.328 21.328 0 1 0-42.656 0Z" fill="#F5F5F5"/>
    <path d="M362.672 448m-21.328 0a21.328 21.328 0 1 0 42.656 0 21.328 21.328 0 1 0-42.656 0Z" fill="#F5F5F5"/>
    <path d="M512 501.328a96 96 0 1 0 96 96 96.112 96.112 0 0 0-96-96zM512 672a74.56 74.56 0 0 1-73.6-64h147.2a74.56 74.56 0 0 1-73.6 64z m-73.6-85.328a74.304 74.304 0 0 1 147.2 0zM682.672 522.672a53.328 53.328 0 1 0-53.344-53.344 53.376 53.376 0 0 0 53.344 53.344z m0-85.344a32 32 0 1 1-32 32 32.032 32.032 0 0 1 32-32zM288 469.328A53.328 53.328 0 1 0 341.328 416 53.376 53.376 0 0 0 288 469.328z m85.328 0a32 32 0 1 1-32-32 32.032 32.032 0 0 1 32 32z" fill="#231F20"/>
    <path d="M594.976 876.08A373.28 373.28 0 0 1 139.84 535.216 201.76 201.76 0 0 1 341.328 352a198.24 198.24 0 0 1 117.488 38.08 91.728 91.728 0 0 0 106.4-0.016A198.272 198.272 0 0 1 682.656 352a10.672 10.672 0 0 0 0-21.328 219.408 219.408 0 0 0-129.968 42.128 70.208 70.208 0 0 1-81.36 0.016 219.392 219.392 0 0 0-130-42.144 222.432 222.432 0 0 0-196.48 117.296 372.64 372.64 0 0 1 159.76-246.432 10.656 10.656 0 0 0-11.872-17.712A394.784 394.784 0 0 0 599.68 896.88a10.656 10.656 0 1 0-4.704-20.8z" fill="#231F20"/>
    <path d="M512 117.328a395.92 395.92 0 0 0-180.96 43.84 10.672 10.672 0 1 0 9.792 18.96A369.072 369.072 0 0 1 512 138.672 373.616 373.616 0 0 1 879.84 450.56a223.84 223.84 0 0 0-152.384-115.456 10.672 10.672 0 0 0-4.24 20.928 203.488 203.488 0 0 1 160.48 176.864 373.264 373.264 0 0 1-247.264 331.168 10.672 10.672 0 0 0 7.136 20.128A394.72 394.72 0 0 0 512 117.328z" fill="#231F20"/>
</svg>